<svg width="900" height="883" viewBox="0 0 900 883" fill="none" xmlns="http://www.w3.org/2000/svg"><path d="m678.272 240.005 94.445 71.169a105.1 105.1 0 0 1 35.528 40.904 51.7 51.7 0 0 1 3.742 14.066q3.195 27.774-15.597 52.712l-17.992 23.877q-9.996 13.265-20.514 21.144-10.512 7.886-20.754 12.645-10.242 4.76-20.346 7.129t-18.877 4.076q-17.018 3.814-26.262 8.916-9.247 5.088-15.645 13.578-10.395 13.795-1.667 32.019a107.1 107.1 0 0 0 29.712 33.814q3.776 3.075 7.668 6l47.753 35.985-39.982 53.058-47.754-35.984q-28.652-21.59-48.575-24.958-19.924-3.366-30.319 10.428-6.397 8.49-8.745 18.789-2.349 10.286-1.326 27.695.377 9.434 1.082 19.538.711 10.097-1.042 21.254-1.752 11.157-6.434 23.435-4.675 12.284-14.671 25.548l-17.992 23.876q-18.792 24.939-46.377 29.53a75.46 75.46 0 0 1-52.05-14.533 175 175 0 0 1-11.609-8.071l-94.445-71.17 39.583-52.528 98.159 73.968 19.192-25.468q15.193-20.163 16.561-35.77 1.36-15.612 1.398-32.221-.623-17.94 1.014-36.671 1.637-18.732 14.431-35.71 16.793-22.286 42.176-23.955a100.8 100.8 0 0 1 52.548 14.431 207 207 0 0 1 7.469 4.175l3.198-4.245a120.64 120.64 0 0 1-32.417-45.414 62 62 0 0 1-2.011-7.149q-5.39-24.86 11.402-47.145 12.794-16.978 30.349-23.716 17.554-6.737 34.971-11.082 15.955-4.614 30.588-10.225 14.625-5.618 29.819-25.779l19.192-25.469-98.16-73.968zM221.599 642.906l-94.445-71.169a105.14 105.14 0 0 1-35.534-40.896 51.7 51.7 0 0 1-3.742-14.067q-3.189-27.782 15.603-52.719l17.992-23.877q9.996-13.265 20.514-21.144 10.512-7.885 20.754-12.645t20.143-6.86a661 661 0 0 0 19.08-4.345q17.016-3.815 26.264-8.904 9.246-5.1 15.643-13.59 10.395-13.796 1.667-32.019a107.1 107.1 0 0 0-29.717-33.807 249 249 0 0 0-7.663-6.007l-47.753-35.985 39.982-53.059 47.753 35.985q28.652 21.59 48.576 24.958 19.923 3.367 30.319-10.428 6.397-8.49 8.747-18.776 2.347-10.299 1.324-27.708-.777-8.904-1.285-19.269-.508-10.366 1.245-21.523 1.752-11.157 6.434-23.435 4.675-12.284 14.671-25.548l17.992-23.876q18.792-24.938 46.371-29.522a75.46 75.46 0 0 1 52.051 14.532 175 175 0 0 1 11.614 8.064l94.445 71.17-39.583 52.528-98.159-73.968-19.192 25.468q-15.194 20.163-16.554 35.775-1.368 15.606-1.405 32.216.623 17.94-1.014 36.671-1.637 18.732-14.431 35.71-16.793 22.285-42.176 23.955a100.8 100.8 0 0 1-52.548-14.431 207 207 0 0 1-7.469-4.175l-3.198 4.245a120.64 120.64 0 0 1 32.412 45.421 62 62 0 0 1 2.016 7.142q5.39 24.86-11.402 47.145-12.794 16.978-30.349 23.716-17.554 6.736-34.971 11.082-15.956 4.614-30.581 10.231-14.632 5.61-29.826 25.773l-19.192 25.468 98.159 73.969z" fill="#B6F066" stroke="#B6F066" style="fill:#b6f066;fill:color(display-p3 .7137 .9412 .4);fill-opacity:1;stroke:#b6f066;stroke:color(display-p3 .7137 .9412 .4);stroke-opacity:1" stroke-width=".5" stroke-linecap="round"/></svg>
