<svg width="900" height="883" viewBox="0 0 900 883" fill="none" xmlns="http://www.w3.org/2000/svg">
<path d="M678.272 240.005L772.717 311.174C787.93 321.471 800.18 335.573 808.245 352.078C810.15 356.567 811.409 361.302 811.987 366.144C814.117 384.66 808.918 402.231 796.39 418.856L778.398 442.733C771.734 451.576 764.896 458.624 757.884 463.877C750.876 469.134 743.958 473.349 737.13 476.522C730.302 479.696 723.52 482.072 716.784 483.651C710.048 485.23 703.756 486.589 697.907 487.727C686.562 490.27 677.808 493.242 671.645 496.643C665.48 500.035 660.265 504.561 656 510.221C649.07 519.418 648.514 530.091 654.333 542.24C661.73 555.489 671.857 567.015 684.045 576.054C686.562 578.104 689.118 580.104 691.713 582.054L739.466 618.039L699.484 671.097L651.73 635.113C632.629 620.719 616.437 612.4 603.155 610.155C589.873 607.911 579.766 611.387 572.836 620.583C568.571 626.243 565.656 632.506 564.091 639.372C562.525 646.229 562.083 655.461 562.765 667.067C563.016 673.357 563.377 679.869 563.847 686.605C564.321 693.336 563.974 700.421 562.805 707.859C561.637 715.297 559.492 723.109 556.371 731.294C553.254 739.483 548.364 747.999 541.7 756.842L523.708 780.718C511.18 797.344 495.721 807.187 477.331 810.248C458.782 811.996 440.242 806.819 425.281 795.715C421.304 793.182 417.431 790.49 413.672 787.644L319.227 716.474L358.81 663.946L456.969 737.914L476.161 712.446C486.29 699.004 491.81 687.081 492.722 676.676C493.629 666.268 494.095 655.528 494.12 644.455C493.705 632.495 494.042 620.272 495.134 607.784C496.225 595.296 501.036 583.393 509.565 572.074C520.76 557.217 534.819 549.232 551.741 548.119C570.25 548.013 588.43 553.006 604.289 562.55C606.807 563.89 609.297 565.282 611.758 566.725L614.956 562.48C600.75 550.083 589.647 534.529 582.539 517.066C581.726 514.726 581.054 512.338 580.528 509.917C576.934 493.343 580.735 477.629 591.93 462.772C600.459 451.453 610.576 443.548 622.279 439.056C633.982 434.565 645.639 430.871 657.25 427.974C667.887 424.898 678.083 421.49 687.838 417.749C697.588 414.004 707.528 405.411 717.657 391.97L736.849 366.501L638.689 292.533L678.272 240.005ZM221.599 642.906L127.154 571.737C111.94 561.443 99.6884 547.343 91.6201 530.841C89.7158 526.352 88.4561 521.616 87.8784 516.774C85.752 498.253 90.9527 480.68 103.481 464.055L121.473 440.178C128.137 431.335 134.975 424.287 141.987 419.034C148.995 413.777 155.913 409.562 162.741 406.389C169.569 403.215 176.283 400.929 182.884 399.529C189.488 398.124 195.848 396.676 201.964 395.184C213.308 392.641 222.063 389.673 228.228 386.28C234.392 382.88 239.606 378.35 243.871 372.69C250.801 363.493 251.357 352.82 245.538 340.671C238.139 327.424 228.01 315.901 215.821 306.864C213.306 304.812 210.751 302.809 208.158 300.857L160.405 264.872L200.387 211.813L248.14 247.798C267.242 262.192 283.433 270.511 296.716 272.756C309.998 275.001 320.104 271.524 327.035 262.328C331.3 256.668 334.215 250.409 335.782 243.552C337.347 236.686 337.788 227.45 337.106 215.844C336.588 209.908 336.16 203.485 335.821 196.575C335.482 189.664 335.897 182.49 337.066 175.052C338.234 167.614 340.379 159.802 343.5 151.617C346.617 143.428 351.507 134.912 358.171 126.069L376.163 102.193C388.691 85.5675 404.148 75.7268 422.534 72.6705C441.084 70.9223 459.624 76.0987 474.585 87.2029C478.563 89.7332 482.438 92.4235 486.199 95.2673L580.644 166.437L541.061 218.965L442.902 144.997L423.71 170.465C413.581 183.907 408.063 195.832 407.156 206.24C406.244 216.644 405.776 227.383 405.751 238.456C406.166 250.416 405.829 262.639 404.737 275.127C403.646 287.615 398.835 299.518 390.306 310.837C379.111 325.694 365.052 333.679 348.13 334.792C329.621 334.898 311.441 329.905 295.582 320.361C293.064 319.021 290.574 317.629 288.113 316.186L284.915 320.431C299.12 332.83 310.221 348.387 317.327 365.852C318.141 368.19 318.814 370.575 319.343 372.994C322.937 389.568 319.136 405.282 307.941 420.139C299.412 431.458 289.295 439.363 277.592 443.855C265.889 448.346 254.232 452.04 242.621 454.937C231.984 458.013 221.79 461.423 212.04 465.168C202.285 468.908 192.343 477.5 182.214 490.941L163.022 516.409L261.181 590.378L221.599 642.906Z" fill="#B6F066" stroke="#B6F066" style="fill:#B6F066;fill:color(display-p3 0.7137 0.9412 0.4000);fill-opacity:1;stroke:#B6F066;stroke:color(display-p3 0.7137 0.9412 0.4000);stroke-opacity:1;" stroke-width="0.5" stroke-linecap="round"/>
</svg>
