<svg xmlns="http://www.w3.org/2000/svg" height="88" viewBox="0 0 463.631 88" fill="none"><g style="fill:#b6f066"><path d="m68.58 23.919 9.55 7.093a10.5 10.5 0 0 1 3.593 4.076c.192.447.32.92.378 1.402q.323 2.767-1.577 5.253l-1.82 2.38q-1.01 1.322-2.073 2.107a12 12 0 0 1-2.099 1.26q-1.035.475-2.057.71-1.021.237-1.909.407-1.72.38-2.655.889-.935.507-1.582 1.353-1.05 1.374-.169 3.19a10.7 10.7 0 0 0 3.005 3.37q.382.307.775.599l4.828 3.586-4.042 5.288-4.829-3.587Q63 61.144 60.986 60.808q-2.014-.335-3.066 1.04a4.85 4.85 0 0 0-.884 1.872q-.237 1.025-.134 2.76.038.94.11 1.947.07 1.007-.106 2.118-.177 1.112-.65 2.336t-1.484 2.546l-1.82 2.38q-1.9 2.485-4.689 2.943a7.7 7.7 0 0 1-5.262-1.449q-.604-.378-1.174-.804l-9.55-7.093 4.003-5.235 9.925 7.372 1.94-2.538q1.536-2.01 1.675-3.565.137-1.557.141-3.211a30 30 0 0 1 .103-3.655q.165-1.866 1.459-3.559 1.698-2.22 4.264-2.387c1.872-.01 3.71.487 5.313 1.438q.383.2.756.416l.323-.423A12 12 0 0 1 58.9 51.53a6 6 0 0 1-.203-.713q-.546-2.477 1.153-4.698 1.293-1.692 3.068-2.364a31 31 0 0 1 3.536-1.104 39 39 0 0 0 3.093-1.019q1.478-.56 3.015-2.57l1.94-2.537-9.924-7.372zM22.407 64.072l-9.55-7.093a10.5 10.5 0 0 1-3.592-4.075 5.1 5.1 0 0 1-.379-1.402q-.322-2.769 1.578-5.254l1.82-2.38q1.01-1.321 2.073-2.107a12 12 0 0 1 2.099-1.26 9.6 9.6 0 0 1 2.037-.684q1-.21 1.929-.433 1.72-.38 2.655-.887a4.9 4.9 0 0 0 1.582-1.355q1.05-1.374.169-3.19a10.7 10.7 0 0 0-3.005-3.37 25 25 0 0 0-.775-.598l-4.828-3.587 4.042-5.288 4.829 3.587q2.897 2.151 4.911 2.487t3.066-1.04a4.85 4.85 0 0 0 .884-1.87q.238-1.027.134-2.762a50 50 0 0 1-.13-1.92q-.051-1.034.126-2.145.177-1.113.65-2.336.474-1.224 1.484-2.546l1.82-2.38q1.9-2.484 4.688-2.942a7.7 7.7 0 0 1 5.263 1.449q.604.378 1.174.803l9.55 7.093-4.003 5.235-9.925-7.372-1.94 2.539q-1.536 2.01-1.674 3.565a37 37 0 0 0-.142 3.21q.063 1.788-.103 3.655t-1.459 3.56q-1.698 2.22-4.264 2.386a10.3 10.3 0 0 1-5.313-1.438 21 21 0 0 1-.756-.416l-.323.423a12 12 0 0 1 3.277 4.527q.124.35.204.712.546 2.477-1.153 4.698-1.293 1.692-3.068 2.364a31 31 0 0 1-3.536 1.104 39 39 0 0 0-3.092 1.02q-1.48.56-3.016 2.568l-1.94 2.539 9.924 7.371z" style="fill:#b6f066;fill-opacity:1" class="fills"/><g stroke-linecap="round" class="strokes"><path d="m68.58 23.919 9.55 7.093a10.5 10.5 0 0 1 3.593 4.076c.192.447.32.92.378 1.402q.323 2.767-1.577 5.253l-1.82 2.38q-1.01 1.322-2.073 2.107a12 12 0 0 1-2.099 1.26q-1.035.475-2.057.71-1.021.237-1.909.407-1.72.38-2.655.889-.935.507-1.582 1.353-1.05 1.374-.169 3.19a10.7 10.7 0 0 0 3.005 3.37q.382.307.775.599l4.828 3.586-4.042 5.288-4.829-3.587Q63 61.144 60.986 60.808q-2.014-.335-3.066 1.04a4.85 4.85 0 0 0-.884 1.872q-.237 1.025-.134 2.76.038.94.11 1.947.07 1.007-.106 2.118-.177 1.112-.65 2.336t-1.484 2.546l-1.82 2.38q-1.9 2.485-4.689 2.943a7.7 7.7 0 0 1-5.262-1.449q-.604-.378-1.174-.804l-9.55-7.093 4.003-5.235 9.925 7.372 1.94-2.538q1.536-2.01 1.675-3.565.137-1.557.141-3.211a30 30 0 0 1 .103-3.655q.165-1.866 1.459-3.559 1.698-2.22 4.264-2.387c1.872-.01 3.71.487 5.313 1.438q.383.2.756.416l.323-.423A12 12 0 0 1 58.9 51.53a6 6 0 0 1-.203-.713q-.546-2.477 1.153-4.698 1.293-1.692 3.068-2.364a31 31 0 0 1 3.536-1.104 39 39 0 0 0 3.093-1.019q1.478-.56 3.015-2.57l1.94-2.537-9.924-7.372zM22.407 64.072l-9.55-7.093a10.5 10.5 0 0 1-3.592-4.075 5.1 5.1 0 0 1-.379-1.402q-.322-2.769 1.578-5.254l1.82-2.38q1.01-1.321 2.073-2.107a12 12 0 0 1 2.099-1.26 9.6 9.6 0 0 1 2.037-.684q1-.21 1.929-.433 1.72-.38 2.655-.887a4.9 4.9 0 0 0 1.582-1.355q1.05-1.374.169-3.19a10.7 10.7 0 0 0-3.005-3.37 25 25 0 0 0-.775-.598l-4.828-3.587 4.042-5.288 4.829 3.587q2.897 2.151 4.911 2.487t3.066-1.04a4.85 4.85 0 0 0 .884-1.87q.238-1.027.134-2.762a50 50 0 0 1-.13-1.92q-.051-1.034.126-2.145.177-1.113.65-2.336.474-1.224 1.484-2.546l1.82-2.38q1.9-2.484 4.688-2.942a7.7 7.7 0 0 1 5.263 1.449q.604.378 1.174.803l9.55 7.093-4.003 5.235-9.925-7.372-1.94 2.539q-1.536 2.01-1.674 3.565a37 37 0 0 0-.142 3.21q.063 1.788-.103 3.655t-1.459 3.56q-1.698 2.22-4.264 2.386a10.3 10.3 0 0 1-5.313-1.438 21 21 0 0 1-.756-.416l-.323.423a12 12 0 0 1 3.277 4.527q.124.35.204.712.546 2.477-1.153 4.698-1.293 1.692-3.068 2.364a31 31 0 0 1-3.536 1.104 39 39 0 0 0-3.092 1.02q-1.48.56-3.016 2.568l-1.94 2.539 9.924 7.371z" style="fill:none;stroke-width:.5;stroke:#b6f066;stroke-opacity:1" class="stroke-shape"/></g></g><g style="fill:var(--foreground)" font-size="12"><path d="M138.204 64.669v-7.425h-.675q-.675 1.65-1.65 3.15t-2.4 2.663q-1.425 1.162-3.338 1.837-1.912.675-4.312.675-3.825 0-6.788-1.8t-4.987-5.25-3.038-8.4q-1.012-4.95-1.012-11.175a51.8 51.8 0 0 1 1.125-11.383 25.9 25.9 0 0 1 3.75-9.054 16.62 16.62 0 0 1 13.816-7.06q.63-.028 1.259-.028 4.05 0 7.125 1.088 3.075 1.087 5.287 3.075 2.213 1.987 3.638 4.762t2.25 6.15l-10.5 2.55q-.45-1.65-1.013-3.187a10.6 10.6 0 0 0-1.462-2.738q-.9-1.2-2.25-1.912-1.35-.713-3.3-.713-4.275 0-6.038 3.525a18.8 18.8 0 0 0-1.652 6.891 39 39 0 0 0-.11 3.009v8.55a26.5 26.5 0 0 0 1.121 8.267q.326.994.791 1.933 1.913 3.825 6.788 3.825 3.825 0 5.7-2.25t1.875-5.775v-3.825h-8.925v-7.95h18.975v27.975zm154.05 0v-55.5h11.1v23.85h.45q.675-1.65 1.65-3.075t2.362-2.512 3.225-1.725 4.163-.638q2.775 0 5.1.938a10.4 10.4 0 0 1 3.975 2.812q1.65 1.875 2.587 4.575t.938 6.225v25.05h-11.1v-23.55a8.4 8.4 0 0 0-1.606-5.595 6.12 6.12 0 0 0-4.919-1.905 9.5 9.5 0 0 0-2.513.338 6.7 6.7 0 0 0-2.212 1.05 5.2 5.2 0 0 0-1.538 1.762q-.562 1.05-.562 2.475v25.425zm-68.4-22.425 5.775-16.275h11.325l-18.225 44.925q-1.725 4.275-4.575 6.525a12.07 12.07 0 0 1-7.493 2.248l-.307.002h-7.65v-8.625h9.3l2.4-6.6-15.6-38.475h11.925l5.625 16.275 3.525 11.25h.6zm-66.375 22.425v-8.625h11.85v-38.25h-11.85V9.169h22.95v46.875h11.85v8.625zm249.375 0v-7.05h-.525q-1.5 3.525-4.163 5.738-2.662 2.212-7.312 2.212-3.225 0-5.888-1.2t-4.575-3.675-3-6.3-1.087-9.075 1.087-9.075q1.088-3.825 3-6.3t4.575-3.675 5.888-1.2q2.325 0 4.125.6t3.187 1.65 2.4 2.513a18.6 18.6 0 0 1 1.763 3.187h.525V9.169h11.1v55.5zm0-13.65v-11.4q0-3.075-2.138-4.5t-5.062-1.425q-3.75 0-5.775 2.288t-2.025 6.337v6q0 4.05 2.025 6.338 2.025 2.287 5.775 2.287 2.925 0 5.062-1.425t2.138-4.5m-160.05 28.65v-53.7h11.1v7.05h.525q1.425-3.45 4.125-5.7t7.35-2.25q3.225 0 5.887 1.2 2.663 1.2 4.575 3.675t3 6.3 1.088 9.075-1.088 9.075-3 6.3-4.575 3.675-5.887 1.2q-4.65 0-7.35-2.212t-4.125-5.738h-.525v22.05zm26.1-31.35v-6q0-4.05-2.025-6.337t-5.775-2.288q-2.925 0-5.063 1.425t-2.137 4.5v11.4q0 3.075 2.137 4.5t5.063 1.425q3.75 0 5.775-2.287t2.025-6.338m190.725-3.6v3.3h-26.475v.675q0 3.75 2.325 6.038a9.34 9.34 0 0 0 6.816 2.287h.009q3.45 0 5.925-1.312a14 14 0 0 0 4.275-3.488l6 6.525q-2.25 2.775-6.3 4.8a21.7 21.7 0 0 1-8.94 2.001q-.668.024-1.335.024a23.3 23.3 0 0 1-10.128-2.005 15.3 15.3 0 0 1-4.647-3.395 19.65 19.65 0 0 1-4.942-12.367 32 32 0 0 1-.083-2.333q0-4.725 1.312-8.512t3.75-6.45 5.925-4.05 7.838-1.388 7.8 1.388q3.45 1.387 5.85 3.937t3.712 6.188 1.313 8.137m-26.475-3.525v.6h15.6v-.6q0-3.825-2.063-6-2.062-2.175-5.662-2.175t-5.738 2.213q-2.137 2.212-2.137 5.962m-97.725 23.475v-8.625h12.3v-21.45h-12.3v-8.625h23.4v30.075h11.4v8.625zm11.175-48.9v-2.175q0-2.25 1.462-3.75a6.37 6.37 0 0 1 4.311-1.476q.45-.024.902-.024a8.36 8.36 0 0 1 4.671 1.048q.293.199.541.452 1.463 1.5 1.463 3.75v2.175q0 2.175-1.463 3.713a6.37 6.37 0 0 1-4.419 1.519q-.396.018-.793.018a8.16 8.16 0 0 1-4.693-1.089 3.6 3.6 0 0 1-.52-.448q-1.462-1.538-1.462-3.713" style="fill:var(--foreground)" class="fills"/><g stroke-linecap="round" class="strokes"><path d="M138.204 64.669v-7.425h-.675q-.675 1.65-1.65 3.15t-2.4 2.663q-1.425 1.162-3.338 1.837-1.912.675-4.312.675-3.825 0-6.788-1.8t-4.987-5.25-3.038-8.4q-1.012-4.95-1.012-11.175a51.8 51.8 0 0 1 1.125-11.383 25.9 25.9 0 0 1 3.75-9.054 16.62 16.62 0 0 1 13.816-7.06q.63-.028 1.259-.028 4.05 0 7.125 1.088 3.075 1.087 5.287 3.075 2.213 1.987 3.638 4.762t2.25 6.15l-10.5 2.55q-.45-1.65-1.013-3.187a10.6 10.6 0 0 0-1.462-2.738q-.9-1.2-2.25-1.912-1.35-.713-3.3-.713-4.275 0-6.038 3.525a18.8 18.8 0 0 0-1.652 6.891 39 39 0 0 0-.11 3.009v8.55a26.5 26.5 0 0 0 1.121 8.267q.326.994.791 1.933 1.913 3.825 6.788 3.825 3.825 0 5.7-2.25t1.875-5.775v-3.825h-8.925v-7.95h18.975v27.975zm154.05 0v-55.5h11.1v23.85h.45q.675-1.65 1.65-3.075t2.362-2.512 3.225-1.725 4.163-.638q2.775 0 5.1.938a10.4 10.4 0 0 1 3.975 2.812q1.65 1.875 2.587 4.575t.938 6.225v25.05h-11.1v-23.55a8.4 8.4 0 0 0-1.606-5.595 6.12 6.12 0 0 0-4.919-1.905 9.5 9.5 0 0 0-2.513.338 6.7 6.7 0 0 0-2.212 1.05 5.2 5.2 0 0 0-1.538 1.762q-.562 1.05-.562 2.475v25.425zm-68.4-22.425 5.775-16.275h11.325l-18.225 44.925q-1.725 4.275-4.575 6.525a12.07 12.07 0 0 1-7.493 2.248l-.307.002h-7.65v-8.625h9.3l2.4-6.6-15.6-38.475h11.925l5.625 16.275 3.525 11.25h.6zm-66.375 22.425v-8.625h11.85v-38.25h-11.85V9.169h22.95v46.875h11.85v8.625zm249.375 0v-7.05h-.525q-1.5 3.525-4.163 5.738-2.662 2.212-7.312 2.212-3.225 0-5.888-1.2t-4.575-3.675-3-6.3-1.087-9.075 1.087-9.075q1.088-3.825 3-6.3t4.575-3.675 5.888-1.2q2.325 0 4.125.6t3.187 1.65 2.4 2.513a18.6 18.6 0 0 1 1.763 3.187h.525V9.169h11.1v55.5zm0-13.65v-11.4q0-3.075-2.138-4.5t-5.062-1.425q-3.75 0-5.775 2.288t-2.025 6.337v6q0 4.05 2.025 6.338 2.025 2.287 5.775 2.287 2.925 0 5.062-1.425t2.138-4.5Zm-160.05 28.65v-53.7h11.1v7.05h.525q1.425-3.45 4.125-5.7t7.35-2.25q3.225 0 5.887 1.2 2.663 1.2 4.575 3.675t3 6.3 1.088 9.075-1.088 9.075-3 6.3-4.575 3.675-5.887 1.2q-4.65 0-7.35-2.212t-4.125-5.738h-.525v22.05zm26.1-31.35v-6q0-4.05-2.025-6.337t-5.775-2.288q-2.925 0-5.063 1.425t-2.137 4.5v11.4q0 3.075 2.137 4.5t5.063 1.425q3.75 0 5.775-2.287t2.025-6.338Zm190.725-3.6v3.3h-26.475v.675q0 3.75 2.325 6.038a9.34 9.34 0 0 0 6.816 2.287h.009q3.45 0 5.925-1.312a14 14 0 0 0 4.275-3.488l6 6.525q-2.25 2.775-6.3 4.8a21.7 21.7 0 0 1-8.94 2.001q-.668.024-1.335.024a23.3 23.3 0 0 1-10.128-2.005 15.3 15.3 0 0 1-4.647-3.395 19.65 19.65 0 0 1-4.942-12.367 32 32 0 0 1-.083-2.333q0-4.725 1.312-8.512t3.75-6.45 5.925-4.05 7.838-1.388 7.8 1.388q3.45 1.387 5.85 3.937t3.712 6.188 1.313 8.137Zm-26.475-3.525v.6h15.6v-.6q0-3.825-2.063-6-2.062-2.175-5.662-2.175t-5.738 2.213q-2.137 2.212-2.137 5.962Zm-97.725 23.475v-8.625h12.3v-21.45h-12.3v-8.625h23.4v30.075h11.4v8.625zm11.175-48.9v-2.175q0-2.25 1.462-3.75a6.37 6.37 0 0 1 4.311-1.476q.45-.024.902-.024a8.36 8.36 0 0 1 4.671 1.048q.293.199.541.452 1.463 1.5 1.463 3.75v2.175q0 2.175-1.463 3.713a6.37 6.37 0 0 1-4.419 1.519q-.396.018-.793.018a8.16 8.16 0 0 1-4.693-1.089 3.6 3.6 0 0 1-.52-.448q-1.462-1.538-1.462-3.713Z" style="fill:none;stroke-width:.5;stroke:var(--foreground);stroke-opacity:1" class="stroke-shape"/></g></g></svg>
